<?xml version="1.0" standalone="no"?>
<!DOCTYPE svg PUBLIC "-//W3C//DTD SVG 20010904//EN"
 "http://www.w3.org/TR/2001/REC-SVG-20010904/DTD/svg10.dtd">
<svg version="1.0" xmlns="http://www.w3.org/2000/svg"
 width="655.000000pt" height="829.000000pt" viewBox="0 0 655.000000 829.000000"
 preserveAspectRatio="xMidYMid meet">

<g transform="translate(0.000000,829.000000) scale(0.100000,-0.100000)"
fill="#000000" stroke="none">
<path d="M3205 8099 c-22 -12 -69 -40 -105 -64 -301 -196 -380 -249 -395 -265
-24 -27 -34 -120 -36 -361 -2 -190 -1 -220 14 -243 13 -19 26 -26 49 -26 28 0
118 43 188 90 14 9 54 34 90 55 84 50 232 146 246 160 36 35 39 58 42 353 4
303 2 322 -37 322 -9 0 -34 -10 -56 -21z"/>
<path d="M3621 8043 c-14 -55 -23 -530 -12 -578 6 -25 22 -50 43 -68 32 -27
315 -217 324 -217 2 0 13 -8 23 -17 41 -35 123 -73 157 -73 28 0 36 5 44 26 6
14 10 146 10 301 l0 276 -38 36 c-21 20 -92 72 -157 116 -66 44 -122 82 -125
85 -18 19 -231 150 -244 150 -9 0 -19 -14 -25 -37z"/>
<path d="M2555 7712 c-16 -9 -31 -20 -33 -24 -2 -5 -9 -8 -17 -8 -7 0 -18 -7
-25 -15 -7 -9 -15 -13 -17 -11 -3 3 -19 -10 -36 -27 -17 -18 -40 -37 -52 -43
-41 -21 -70 -39 -83 -51 -7 -7 -22 -13 -33 -13 -10 0 -19 -4 -19 -10 0 -10
-62 -53 -110 -77 -30 -15 -43 -23 -133 -85 -38 -26 -75 -45 -81 -41 -6 3 -8 3
-4 -2 8 -9 -15 -35 -32 -35 -12 0 -71 -39 -82 -55 -4 -5 -8 -6 -8 -2 0 4 -10
-3 -22 -16 -22 -23 -86 -57 -106 -57 -6 0 -12 -4 -14 -8 -1 -4 -25 -21 -53
-37 -27 -15 -52 -31 -55 -35 -3 -4 -30 -22 -60 -39 -30 -17 -95 -58 -145 -91
-49 -33 -97 -62 -105 -66 -63 -30 -100 -84 -100 -146 0 -27 -3 -48 -7 -48 -13
0 -18 -411 -7 -488 6 -42 -10 -97 -26 -87 -9 6 -55 -42 -55 -58 -1 -24 -29
-67 -46 -72 -29 -10 -34 -43 -9 -65 12 -10 21 -21 21 -24 -6 -48 3 -44 37 15
77 136 105 159 427 352 11 7 58 36 105 66 88 56 132 66 200 47 21 -6 27 -3 39
24 19 45 87 121 130 146 20 12 59 35 86 52 28 18 69 42 93 54 23 12 42 26 42
30 0 4 5 8 11 8 6 0 29 13 52 28 23 15 54 34 70 41 15 8 27 18 27 23 0 4 9 8
20 8 11 0 20 4 20 9 0 13 82 51 110 51 13 0 43 -9 67 -21 52 -25 68 -21 76 19
3 16 12 36 19 44 7 7 14 20 16 28 3 13 21 31 75 74 l25 20 -22 17 c-91 76 -95
80 -104 127 -6 29 -7 104 -1 192 4 80 8 202 8 273 1 125 1 127 -21 127 -13 0
-36 -8 -53 -18z m-70 -724 c-11 -7 -15 -17 -11 -32 4 -16 1 -22 -13 -22 -17 0
-17 3 -4 34 19 47 37 65 42 44 1 -8 -5 -19 -14 -24z m-644 -356 c-13 -21 -15
113 -3 209 6 58 7 51 10 -64 1 -73 -2 -135 -7 -145z m575 243 c-11 -8 -25 -15
-32 -15 -6 0 -17 -7 -24 -15 -7 -8 -17 -15 -23 -15 -6 0 4 13 23 30 19 16 44
29 55 29 20 0 20 0 1 -14z m-222 -130 c-10 -8 -25 -15 -31 -15 -7 0 -13 -6
-13 -14 0 -16 -22 -26 -53 -26 -19 1 -18 3 8 15 17 8 44 24 60 34 35 23 57 28
29 6z m-450 -110 c18 -38 13 -109 -8 -102 -9 3 -19 137 -10 137 1 0 9 -16 18
-35z m240 -20 c-18 -14 -54 -21 -41 -9 11 12 52 31 56 27 3 -2 -4 -10 -15 -18z
m-82 -47 c-16 -16 -25 -19 -33 -11 -16 16 -2 33 29 33 l26 0 -22 -22z m-179
-82 c-5 -23 -43 -69 -43 -51 0 4 -9 0 -20 -10 -33 -30 -22 -5 18 40 43 50 51
54 45 21z m-239 -171 c-4 -8 -14 -15 -23 -15 -14 1 -13 3 3 15 25 19 27 19 20
0z m-49 -25 c-3 -5 -13 -10 -21 -10 -8 0 -14 -4 -14 -10 0 -5 -6 -10 -12 -10
-7 1 -2 10 11 20 25 21 46 27 36 10z m-106 -73 c-2 -1 -12 -9 -22 -16 -15 -12
-17 -12 -11 3 3 9 13 16 22 16 8 0 13 -1 11 -3z"/>
<path d="M4402 7543 c-4 -10 -7 -137 -7 -283 0 -277 4 -312 46 -372 11 -14
110 -87 222 -160 253 -169 279 -183 302 -174 17 6 18 22 12 300 -3 161 -11
305 -16 319 -6 15 -45 52 -88 84 -109 81 -442 303 -454 303 -5 0 -13 -8 -17
-17z"/>
<path d="M3330 7350 c-8 -5 -17 -7 -20 -5 -13 8 -280 -166 -280 -182 0 -7 -6
-13 -14 -13 -7 0 -20 -8 -27 -17 -13 -15 -11 -16 11 -10 l25 6 -25 -19 c-18
-14 -26 -15 -30 -7 -9 21 -57 6 -57 -18 0 -18 2 -18 30 -4 19 9 19 8 -3 -11
-35 -29 -70 -42 -96 -36 -13 4 -35 1 -51 -5 -26 -10 -26 -12 -8 -19 11 -4 28
-3 38 2 10 5 21 7 24 5 2 -3 -6 -11 -19 -18 -12 -6 -26 -16 -29 -21 -3 -5 -15
-10 -27 -11 -12 0 -19 -3 -17 -5 2 -2 -18 -21 -44 -42 -89 -70 -93 -84 -102
-314 -4 -110 -8 -253 -8 -316 l-1 -116 27 -2 c15 -1 57 14 94 33 48 24 69 31
72 22 3 -6 6 -2 6 11 1 12 7 22 14 22 7 0 29 12 48 26 46 34 73 49 65 35 -4
-7 1 -11 13 -11 12 0 21 -5 21 -11 0 -5 -5 -7 -10 -4 -6 4 -24 -5 -41 -19 -30
-26 -36 -28 -74 -30 -11 -1 -20 -8 -20 -16 0 -9 -11 -16 -28 -18 -16 -2 -31
-10 -34 -18 -3 -8 -14 -14 -24 -14 -10 0 -18 -6 -16 -12 1 -7 -8 -14 -20 -16
-13 -2 -23 -8 -23 -13 0 -5 -7 -9 -15 -9 -8 0 -15 -4 -15 -10 0 -5 -9 -10 -19
-10 -26 0 -63 -48 -55 -72 3 -10 -3 -30 -15 -47 -12 -16 -22 -38 -24 -50 -2
-11 -6 -24 -10 -27 -9 -9 30 -37 42 -29 5 3 12 19 16 36 4 16 17 40 29 52 13
13 31 35 41 50 9 15 23 27 30 27 6 0 20 9 30 20 10 11 25 20 32 20 8 0 26 9
40 20 14 11 30 17 35 14 5 -3 20 6 32 19 13 14 27 23 30 20 3 -4 6 -1 6 5 0 7
10 12 23 12 13 0 33 11 45 25 12 14 33 25 46 25 14 0 28 5 31 10 3 6 14 10 23
10 13 0 12 -5 -8 -20 -14 -11 -28 -20 -32 -20 -4 0 -26 -13 -50 -29 -24 -16
-59 -38 -78 -49 -209 -120 -276 -171 -289 -220 -5 -20 -11 -169 -13 -330 l-3
-294 24 -19 c13 -10 30 -19 38 -19 16 0 85 30 93 40 3 4 19 11 36 17 l30 11
-5 -37 c-6 -32 -10 -36 -39 -39 -18 -2 -36 -10 -38 -17 -3 -8 -19 -17 -35 -20
-17 -4 -41 -17 -55 -30 -14 -13 -35 -25 -47 -27 -14 -2 -25 -14 -31 -33 -19
-64 -39 -104 -72 -141 -35 -41 -41 -54 -24 -54 6 0 10 -9 10 -19 0 -11 5 -23
10 -26 15 -9 12 -25 -5 -25 -8 0 -15 -9 -15 -20 0 -11 5 -20 10 -20 6 0 10 5
10 10 0 6 8 10 18 10 13 0 23 12 31 43 34 114 135 251 214 291 17 9 39 21 47
26 25 16 263 150 267 150 1 0 27 16 57 35 30 19 60 35 66 35 5 0 10 3 10 8 0
19 144 81 173 74 13 -4 7 33 -10 58 -16 22 -17 50 -15 245 1 121 5 307 8 414
5 156 3 195 -7 203 -11 7 -11 11 4 21 54 35 53 31 35 73 -17 39 -19 118 -4
142 5 8 2 11 -6 10 -15 -3 -13 45 2 50 6 2 8 7 6 11 -7 11 -8 84 -2 181 13
224 17 371 10 382 -4 7 -8 25 -8 42 -1 32 -13 41 -36 26z m-72 -815 c-2 -19 0
-35 5 -35 4 0 5 -5 2 -10 -4 -6 -16 -8 -27 -4 -20 6 -66 -12 -80 -31 -4 -5
-10 -7 -13 -3 -4 4 12 18 35 33 24 15 46 38 52 56 14 40 31 37 26 -6z m-185
-148 c5 -14 -17 -19 -43 -10 -11 4 -8 8 10 13 14 5 26 8 26 9 1 1 4 -5 7 -12z
m-56 -23 c-3 -3 -12 -4 -19 -1 -8 3 -5 6 6 6 11 1 17 -2 13 -5z m172 -40 c-14
-17 -69 -48 -69 -39 0 13 55 53 74 54 5 1 3 -6 -5 -15z m65 -26 c8 -30 6 -240
-3 -353 -6 -73 -8 -49 -9 127 -1 119 -5 223 -8 232 -3 9 -2 16 4 16 5 0 12
-10 16 -22z m-144 -18 c0 -5 -7 -10 -16 -10 -8 0 -12 5 -9 10 3 6 10 10 16 10
5 0 9 -4 9 -10z m149 -497 c-2 -116 -16 -140 -18 -30 -1 59 3 97 9 97 6 0 10
-28 9 -67z m-36 -208 c-25 -19 -28 -11 -6 21 15 23 19 25 21 10 2 -10 -5 -24
-15 -31z m-69 -50 c-4 -8 -11 -15 -16 -15 -6 0 -5 6 2 15 7 8 14 15 16 15 2 0
1 -7 -2 -15z m-74 -43 c0 -4 -15 -16 -32 -26 l-33 -17 30 25 c33 29 35 30 35
18z m-140 -86 c0 -3 -4 -8 -10 -11 -5 -3 -10 -1 -10 4 0 6 5 11 10 11 6 0 10
-2 10 -4z m-30 -16 c0 -5 -5 -10 -11 -10 -5 0 -7 5 -4 10 3 6 8 10 11 10 2 0
4 -4 4 -10z m-30 -20 c0 -5 -4 -10 -10 -10 -5 0 -10 5 -10 10 0 6 5 10 10 10
6 0 10 -4 10 -10z m67 4 c-3 -3 -12 -4 -19 -1 -8 3 -5 6 6 6 11 1 17 -2 13 -5z"/>
<path d="M3577 7218 c-8 -49 -9 -603 -1 -633 6 -25 27 -40 234 -173 30 -20 81
-53 113 -74 32 -21 60 -38 62 -38 3 0 36 -20 74 -45 38 -25 81 -45 94 -45 24
0 25 3 32 83 4 46 5 180 3 298 -5 293 -1 285 -218 430 -193 130 -355 229 -372
229 -10 0 -18 -12 -21 -32z"/>
<path d="M5153 7033 c-16 -6 -18 -523 -3 -588 6 -29 22 -52 57 -82 26 -24 50
-43 54 -43 3 0 84 -52 179 -116 95 -63 186 -118 201 -121 49 -10 52 10 44 306
-6 246 -8 268 -28 297 -20 31 -90 83 -327 245 -145 99 -160 108 -177 102z"/>
<path d="M1111 6704 c0 -11 3 -14 6 -6 3 7 2 16 -1 19 -3 4 -6 -2 -5 -13z"/>
<path d="M2205 6590 c-77 -48 -178 -112 -225 -142 -46 -29 -94 -67 -106 -85
-23 -34 -22 -21 -40 -474 l-7 -157 25 -16 c24 -16 28 -15 79 10 30 15 99 55
154 89 55 33 141 85 190 114 111 66 143 95 155 141 5 19 10 157 12 306 3 303
3 304 -61 303 -28 0 -68 -21 -176 -89z"/>
<path d="M918 6642 c-96 -56 -374 -236 -400 -260 -44 -40 -56 -99 -73 -347 -8
-126 -16 -239 -17 -250 -3 -26 9 -45 29 -45 17 0 97 45 233 130 41 26 93 58
115 70 55 32 133 107 156 153 11 20 24 72 29 115 16 132 31 409 24 436 -8 34
-34 33 -96 -2z"/>
<path d="M4385 6634 c-19 -14 -20 -25 -17 -312 l4 -297 25 -33 c14 -18 33 -36
42 -40 9 -4 34 -19 56 -33 54 -35 270 -168 320 -197 90 -51 105 -57 123 -46
15 10 17 36 20 207 3 259 -8 409 -35 445 -25 35 -394 275 -476 310 -35 15 -37
15 -62 -4z"/>
<path d="M5856 6574 c-9 -24 3 -394 16 -479 22 -148 51 -176 403 -398 121 -76
125 -76 124 16 -1 126 -26 501 -34 522 -5 11 -23 34 -39 52 -33 33 -418 293
-447 300 -9 3 -19 -3 -23 -13z"/>
<path d="M3565 6285 c-4 -24 -8 -179 -9 -344 l-1 -300 30 -30 c27 -26 184
-126 432 -273 81 -48 128 -59 151 -36 9 9 12 96 12 328 0 305 -1 317 -20 338
-12 12 -31 28 -43 36 -12 7 -103 65 -202 128 -206 131 -319 198 -334 198 -5 0
-13 -20 -16 -45z"/>
<path d="M1558 6177 c-48 -29 -122 -74 -165 -101 -43 -27 -98 -60 -122 -74
-58 -34 -120 -97 -142 -147 -20 -45 -34 -189 -45 -442 l-6 -163 31 0 c21 0 68
22 144 68 61 38 162 99 222 135 126 77 160 111 174 176 5 25 13 165 17 311 6
224 5 267 -8 277 -11 10 -31 2 -100 -40z"/>
<path d="M5134 6183 c-4 -14 -4 -150 0 -301 9 -360 -8 -328 246 -483 303 -185
300 -183 315 -168 11 12 12 55 5 249 -5 129 -12 255 -16 280 -14 99 -68 165
-199 242 -27 16 -84 51 -125 78 -95 62 -208 130 -215 130 -2 0 -8 -12 -11 -27z"/>
<path d="M4160 6021 c0 -5 7 -14 15 -21 16 -14 18 -10 9 14 -6 17 -24 22 -24
7z"/>
<path d="M4222 5899 c2 -7 10 -15 17 -17 8 -3 12 1 9 9 -2 7 -10 15 -17 17 -8
3 -12 -1 -9 -9z"/>
<path d="M846 5794 c-4 -10 -14 -14 -26 -11 -13 3 -20 0 -20 -9 0 -7 -11 -16
-25 -20 -14 -3 -22 -10 -19 -15 3 -6 -5 -7 -20 -3 -20 5 -26 2 -26 -10 0 -16
-57 -52 -67 -42 -10 10 -45 -16 -39 -29 3 -9 0 -12 -8 -9 -8 3 -20 -3 -27 -14
-8 -10 -25 -22 -39 -25 -38 -9 -105 -64 -133 -107 -27 -43 -77 -610 -60 -677
8 -31 7 -44 -4 -59 -10 -13 -12 -32 -9 -59 10 -66 9 -87 -6 -110 -4 -6 -9 -59
-12 -119 -4 -60 -9 -113 -13 -120 -4 -6 -8 -47 -9 -91 -3 -172 -17 -435 -25
-435 -4 0 -12 -14 -18 -30 -22 -64 26 -50 209 58 52 32 100 59 105 61 6 2 47
26 91 52 106 63 153 71 226 37 71 -34 96 -43 82 -28 -15 15 12 71 60 129 20
24 36 45 36 47 0 2 -18 13 -41 25 -29 14 -46 32 -58 60 -20 47 -40 47 -63 -3
-18 -41 -93 -118 -114 -118 -8 0 -14 -5 -14 -11 0 -5 -4 -7 -10 -4 -6 3 -7 -1
-4 -9 5 -13 -2 -16 -36 -16 -33 0 -48 -6 -66 -25 -13 -14 -32 -25 -42 -25 -11
0 -31 -9 -45 -20 -29 -23 -41 -25 -55 -7 -8 9 6 20 59 46 38 19 69 37 69 41 0
5 10 6 22 2 15 -4 19 -2 14 7 -5 8 0 14 13 18 12 3 21 8 21 12 0 4 16 15 37
25 29 14 38 15 44 4 5 -7 9 -8 10 -3 1 6 2 15 4 20 1 6 3 16 3 23 1 6 9 12 17
12 8 0 15 7 15 15 0 9 7 18 16 22 11 4 12 8 4 13 -9 6 -8 14 4 32 9 14 19 58
22 101 4 42 11 77 15 77 5 0 6 7 2 16 -3 8 4 28 15 43 17 23 20 39 17 92 -3
52 -2 57 4 24 l8 -40 2 47 c0 25 3 52 4 60 2 7 2 10 0 6 -3 -5 -9 -8 -14 -8
-14 0 -11 27 4 34 6 3 2 3 -10 0 -19 -4 -23 -1 -23 20 0 14 4 26 9 26 5 0 7
23 5 52 -2 32 1 55 8 59 17 11 -57 38 -84 32 -13 -4 -27 -12 -31 -20 -11 -18
-37 -16 -37 3 0 10 5 14 16 10 8 -3 12 -2 9 4 -3 6 3 10 14 10 11 0 23 4 26
10 8 14 80 31 99 24 9 -3 13 -10 10 -15 -3 -5 6 -4 19 2 14 6 33 29 42 50 10
21 26 46 36 55 26 23 24 30 -16 65 -19 17 -35 40 -35 51 0 10 -4 17 -9 13 -5
-3 -12 5 -14 17 -3 16 -4 14 -3 -6 1 -33 -20 -47 -27 -19 -3 12 -5 10 -6 -8
-1 -26 -45 -91 -78 -116 -9 -7 -26 -13 -37 -13 -18 0 -16 4 13 27 58 46 79 71
86 105 4 18 12 39 18 46 7 8 10 50 8 103 -1 52 1 89 7 89 13 0 21 -84 12 -126
-5 -20 -6 -33 -3 -30 4 3 11 2 17 -3 8 -6 12 1 13 22 2 25 0 29 -8 17 -8 -12
-9 -9 -5 10 4 14 9 39 11 55 4 28 4 29 -5 5 -8 -22 -9 -21 -5 10 15 109 24
208 28 307 l5 112 -35 -3 c-19 -1 -36 1 -39 6 -10 15 -81 9 -88 -8z m-86 -774
c0 -5 -4 -10 -10 -10 -5 0 -10 5 -10 10 0 6 5 10 10 10 6 0 10 -4 10 -10z
m-40 -46 c0 -2 -9 -4 -21 -4 -11 0 -18 4 -14 10 5 8 35 3 35 -6z m-66 -19
c-25 -19 -40 -19 -24 0 7 8 20 15 28 15 13 0 12 -3 -4 -15z m-47 -31 c-3 -3
-12 -4 -19 -1 -8 3 -5 6 6 6 11 1 17 -2 13 -5z m153 -33 c0 -9 -24 -21 -41
-21 -16 0 -10 18 9 23 28 8 32 7 32 -2z m-260 -31 c0 -5 -4 -10 -10 -10 -5 0
-10 5 -10 10 0 6 5 10 10 10 6 0 10 -4 10 -10z m195 -10 c-3 -5 -11 -10 -16
-10 -6 0 -7 5 -4 10 3 6 11 10 16 10 6 0 7 -4 4 -10z m-249 -25 c-8 -8 -25
-15 -38 -15 l-23 1 25 14 c35 20 56 20 36 0z m180 -20 c-11 -8 -30 -15 -43
-15 -13 0 -23 -4 -23 -8 0 -5 -11 -14 -25 -20 -36 -17 -31 -1 8 23 54 33 122
49 83 20z m-161 -85 c-3 -5 -11 -10 -16 -10 -6 0 -7 5 -4 10 3 6 11 10 16 10
6 0 7 -4 4 -10z m442 -82 c-2 -13 -4 -5 -4 17 -1 22 1 32 4 23 2 -10 2 -28 0
-40z m-397 -663 c0 -20 -56 -39 -109 -36 -22 1 -21 3 12 25 52 36 97 41 97 11z"/>
<path d="M468 3973 c7 -3 16 -2 19 1 4 3 -2 6 -13 5 -11 0 -14 -3 -6 -6z"/>
<path d="M2284 5738 c-195 -113 -247 -145 -337 -203 -128 -84 -129 -85 -139
-350 -12 -286 -8 -405 13 -418 14 -9 151 63 384 204 17 10 45 26 64 35 49 25
100 80 125 133 19 43 21 62 21 346 0 354 10 334 -131 253z"/>
<path d="M4364 5746 c-3 -7 -4 -148 -2 -312 3 -284 4 -301 25 -339 25 -46 73
-95 123 -123 19 -11 120 -70 225 -131 104 -61 195 -111 202 -111 27 0 30 51
23 340 -7 320 -9 328 -67 381 -32 30 -495 309 -512 309 -7 0 -14 -6 -17 -14z"/>
<path d="M3332 5695 c0 -16 2 -22 5 -12 2 9 2 23 0 30 -3 6 -5 -1 -5 -18z"/>
<path d="M5880 5705 c-10 -12 -11 -75 -6 -293 8 -324 9 -325 101 -387 142 -94
411 -255 427 -255 16 0 18 11 18 108 -2 252 -17 487 -34 520 -11 22 -55 58
-139 114 -162 107 -327 208 -342 208 -7 0 -18 -7 -25 -15z"/>
<path d="M1766 5548 c-7 -30 -8 -31 -20 -45 -41 -46 -45 -60 -24 -81 20 -20
38 -14 49 16 5 15 22 44 36 64 29 42 25 68 -11 68 -16 0 -25 -7 -30 -22z"/>
<path d="M4963 5540 c-29 -12 -28 -14 1 -53 14 -18 29 -44 35 -60 12 -30 19
-33 45 -14 16 12 15 17 -15 75 -18 34 -35 62 -38 61 -3 0 -16 -4 -28 -9z"/>
<path d="M3105 5342 c-33 -21 -91 -55 -130 -77 -220 -121 -355 -213 -355 -240
0 -5 -6 -16 -13 -24 -28 -33 -37 -104 -48 -378 -11 -286 -8 -323 25 -323 14 0
136 65 292 155 53 30 97 55 99 55 3 0 42 22 88 49 55 33 93 63 112 90 26 39
28 51 37 186 4 79 7 233 6 342 l-3 198 -25 3 c-15 1 -48 -13 -85 -36z"/>
<path d="M3550 5311 c-6 -13 -10 -137 -10 -336 0 -339 2 -356 53 -407 27 -27
547 -328 566 -328 23 0 26 44 21 342 -5 285 -6 306 -27 348 -12 25 -36 60 -54
78 -30 31 -191 132 -210 132 -5 0 -9 5 -9 10 0 6 -4 10 -10 10 -5 0 -34 16
-64 35 -30 19 -58 35 -61 35 -3 0 -24 12 -46 26 -52 33 -126 74 -133 74 -3 0
-10 -9 -16 -19z"/>
<path d="M1482 5258 c-56 -35 -154 -94 -218 -133 -111 -67 -206 -139 -202
-153 1 -4 -1 -36 -5 -72 -4 -36 -12 -161 -17 -279 -7 -181 -7 -219 6 -242 26
-50 53 -48 166 17 56 33 120 70 142 82 23 13 77 44 121 70 100 57 133 87 139
126 8 50 15 176 22 397 7 202 6 207 -15 228 -11 11 -24 21 -29 21 -4 0 -53
-28 -110 -62z"/>
<path d="M5152 5288 c-14 -14 -15 -251 -3 -491 6 -122 11 -152 27 -173 21 -29
444 -280 487 -290 20 -4 34 0 49 13 20 18 21 24 14 238 -10 291 -18 380 -41
405 -9 10 -96 68 -194 128 -307 191 -314 195 -339 170z"/>
<path d="M5883 4844 c-10 -27 7 -566 20 -609 7 -23 29 -57 52 -80 49 -48 442
-285 473 -285 21 0 22 4 22 88 0 48 -5 191 -11 317 -9 192 -14 234 -28 255
-23 32 -486 330 -513 330 -5 0 -11 -7 -15 -16z"/>
<path d="M2300 4831 c-14 -5 -43 -19 -65 -31 -22 -13 -58 -33 -80 -45 -22 -12
-92 -52 -155 -90 -247 -146 -237 -132 -250 -326 -5 -79 -10 -235 -10 -347 l0
-202 25 -12 c21 -10 32 -7 76 20 27 18 53 32 56 32 3 0 32 16 64 37 33 20 62
33 65 30 3 -3 15 2 25 12 11 10 32 24 47 32 15 8 29 17 32 20 8 10 126 76 147
83 38 12 100 80 112 124 8 29 11 136 10 337 l-1 295 -25 20 c-28 21 -34 22
-73 11z"/>
<path d="M2481 4786 c-1 -15 -7 -17 -31 -14 l-30 5 1 -76 c1 -54 3 -69 9 -51
6 18 8 7 7 -37 -1 -35 -5 -63 -9 -63 -4 0 -7 -96 -6 -212 0 -117 4 -192 7
-166 6 45 7 46 26 31 15 -12 16 -14 3 -10 -15 5 -16 0 -11 -43 7 -62 -2 -100
-25 -100 -9 0 -28 -12 -41 -25 -13 -14 -29 -25 -37 -25 -8 0 -36 -15 -62 -34
-27 -18 -67 -37 -90 -41 -26 -4 -46 -14 -52 -26 -6 -10 -21 -19 -34 -19 -12 0
-33 -11 -46 -25 -13 -14 -32 -25 -42 -25 -10 0 -18 -4 -18 -10 0 -5 -7 -10
-15 -10 -8 0 -24 -9 -35 -20 -11 -11 -24 -20 -28 -20 -5 0 -16 -8 -26 -18 -9
-11 -34 -24 -55 -30 -21 -7 -55 -28 -75 -47 -21 -19 -43 -35 -50 -35 -18 0
-27 61 -16 102 5 18 11 148 15 288 10 408 12 434 34 473 10 19 32 47 47 62
l28 28 -27 14 c-30 15 -74 9 -74 -11 0 -7 -10 -30 -23 -50 -15 -26 -27 -35
-38 -31 -9 3 -13 3 -9 -1 4 -4 2 -13 -4 -21 -9 -10 -6 -18 11 -33 13 -11 18
-20 12 -20 -7 0 -11 -46 -11 -143 0 -79 -5 -166 -11 -193 -6 -27 -12 -146 -13
-264 -1 -118 -6 -221 -10 -227 -5 -7 -19 -13 -32 -13 -13 0 -27 -5 -30 -10 -6
-10 -87 -55 -92 -51 -2 0 -15 1 -30 1 -19 0 -42 -13 -70 -40 -45 -44 -84 -63
-108 -53 -9 3 -15 2 -14 -3 4 -25 -5 -34 -50 -49 -26 -8 -59 -27 -71 -40 -13
-14 -29 -25 -37 -25 -7 0 -13 -4 -13 -8 0 -4 -26 -13 -58 -20 -32 -7 -67 -19
-78 -28 -10 -8 -14 -13 -7 -10 6 4 14 2 17 -3 3 -5 -3 -11 -14 -14 -15 -4 -20
-14 -20 -41 0 -20 4 -36 9 -36 5 0 11 -9 14 -20 3 -10 21 -27 42 -37 30 -14
33 -18 18 -24 -17 -7 -17 -8 0 -8 10 -1 23 -6 30 -11 43 -36 81 -59 169 -102
54 -27 108 -50 119 -51 12 -1 17 -7 14 -15 -3 -7 0 -10 6 -7 5 4 15 2 22 -3
17 -14 150 -82 160 -82 4 0 21 -10 37 -22 24 -18 30 -29 30 -61 0 -46 -13 -73
-51 -109 -33 -31 -34 -30 -14 8 8 16 15 34 15 41 0 26 -56 75 -128 112 -381
192 -423 211 -459 211 -21 0 -49 -6 -63 -14 -14 -7 -65 -35 -115 -61 -49 -27
-102 -56 -117 -64 -15 -9 -59 -35 -99 -58 -39 -24 -74 -43 -78 -43 -3 0 -18
-11 -33 -25 -30 -28 -29 -47 6 -80 30 -29 531 -278 564 -280 47 -3 52 -5 52
-15 0 -5 -6 -10 -14 -10 -18 0 -15 -23 4 -41 17 -16 205 -109 220 -109 5 0 10
-5 10 -10 0 -6 3 -9 8 -8 7 3 151 -66 202 -96 51 -29 292 -141 328 -151 12 -3
22 -11 22 -16 0 -6 4 -8 8 -5 5 3 18 -2 28 -12 21 -19 76 -56 84 -57 3 0 16
-8 28 -17 35 -24 21 -50 -56 -104 -86 -60 -1426 -1404 -1453 -1457 -19 -35
-19 -40 -3 -72 8 -19 32 -47 52 -62 l37 -28 620 -3 620 -3 105 26 c145 35 496
97 620 109 507 51 825 55 1335 20 181 -12 601 -72 770 -109 10 -3 37 -7 60
-11 22 -3 69 -12 105 -21 53 -12 177 -15 702 -16 l637 -2 40 39 c54 52 66 84
49 125 -8 18 -294 315 -686 711 -583 588 -741 741 -808 778 -21 12 -25 49 -7
64 40 34 158 96 192 101 10 2 27 9 37 17 9 8 18 13 18 12 1 -5 52 16 107 44
26 13 54 24 63 24 9 0 16 4 16 8 0 5 19 17 43 27 23 10 74 33 112 51 72 34
114 51 128 52 4 1 15 8 23 17 9 8 24 15 34 15 10 0 20 4 22 9 2 5 36 23 75 39
l72 29 -32 30 c-17 17 -126 81 -242 143 -222 119 -259 145 -281 197 -29 68
-10 123 52 149 19 8 34 19 34 24 0 6 11 8 25 4 14 -3 25 -2 25 4 0 10 47 27
63 23 5 -1 6 2 3 7 -3 4 24 21 59 38 35 16 69 38 74 49 10 18 10 17 5 -5 l-6
-25 17 23 c9 12 24 22 34 22 9 0 38 14 64 30 26 17 53 30 60 30 24 0 70 57 64
80 -4 17 -3 19 9 9 8 -7 14 -7 14 -1 0 12 -24 22 -56 22 -18 0 -24 5 -24 20 0
20 -48 75 -58 66 -2 -3 -11 1 -19 9 -8 8 -32 15 -54 15 -21 0 -39 5 -39 10 0
6 -10 15 -22 20 -23 9 -23 9 2 10 21 0 17 5 -23 24 -26 13 -55 31 -65 39 -9 9
-40 19 -69 23 -28 3 -54 12 -57 20 -3 7 -24 23 -47 35 -24 12 -49 28 -57 35
-7 8 -27 14 -43 14 -57 0 -69 14 -62 73 7 57 10 57 -55 2 -13 -11 -28 -20 -33
-20 -5 0 -13 -5 -17 -11 -4 -6 -17 -16 -28 -22 -20 -11 -23 -8 -38 28 -9 22
-20 40 -26 40 -5 0 -10 8 -10 18 0 26 -39 42 -69 29 -20 -10 -27 -7 -49 18
-14 17 -31 29 -39 27 -7 -2 -13 4 -13 12 0 9 -19 28 -41 43 -23 16 -53 36 -68
45 -14 10 -21 18 -16 18 6 0 4 4 -4 9 -13 8 -13 12 0 27 9 11 9 15 2 10 -7 -4
-13 -2 -13 3 0 6 -13 11 -29 11 -17 0 -31 6 -35 16 -3 8 -10 13 -15 9 -6 -3
-8 -12 -4 -20 3 -8 0 -15 -6 -15 -6 0 -11 5 -11 10 0 6 -11 8 -25 6 -14 -3
-25 0 -25 5 0 6 -5 7 -11 3 -6 -3 -10 1 -9 12 4 35 0 44 -20 44 -11 0 -20 5
-20 11 0 5 4 8 8 5 4 -2 13 4 20 15 7 11 8 19 2 19 -5 0 -10 -5 -10 -11 0 -7
-10 -9 -25 -7 -14 3 -25 2 -25 -3 0 -4 -8 -6 -17 -4 -10 2 -26 4 -35 4 -14 1
-16 10 -13 52 5 64 -13 74 -58 32 -18 -17 -102 -66 -187 -111 -85 -44 -193
-101 -240 -126 -204 -110 -227 -119 -312 -124 -146 -8 -191 6 -424 134 -115
64 -247 136 -294 161 -86 46 -160 106 -160 130 0 7 -4 13 -9 13 -30 0 -66 226
-43 273 13 26 23 423 11 452 -7 18 -8 19 -8 1z m-26 -87 c-10 -32 -29 -6 -20
28 6 24 8 26 16 10 6 -10 7 -27 4 -38z m-11 -354 c3 -8 1 -15 -4 -15 -6 0 -10
7 -10 15 0 8 2 15 4 15 2 0 6 -7 10 -15z m40 -401 c3 -9 13 -14 21 -10 8 3 17
1 20 -4 4 -6 15 -10 27 -10 15 0 18 -4 13 -17 -5 -14 -3 -15 6 -6 7 7 16 8 23
3 6 -5 27 -23 47 -40 20 -16 44 -30 53 -30 10 0 15 -4 12 -8 -3 -5 16 -14 41
-20 29 -8 47 -19 50 -31 3 -11 12 -18 21 -16 10 1 23 -2 30 -8 6 -5 12 -6 12
-2 0 4 7 2 15 -5 13 -11 13 -14 -2 -26 -24 -18 -63 -18 -63 0 0 18 -8 23 -73
46 -29 10 -52 24 -52 31 0 7 -15 17 -32 21 -18 5 -33 13 -33 17 0 5 -24 12
-52 16 -29 4 -62 12 -73 17 -15 6 -11 7 16 4 33 -4 36 -2 31 16 -2 11 -12 22
-21 25 -9 3 -26 15 -37 25 -19 17 -22 17 -27 4 -4 -9 -12 -16 -18 -16 -7 0 -5
8 6 20 22 24 31 25 39 4z m-140 -28 c-10 -8 -21 -12 -24 -10 -5 6 21 24 34 24
6 0 1 -6 -10 -14z m151 -16 c3 -5 -3 -10 -15 -10 -12 0 -18 5 -15 10 3 6 10
10 15 10 5 0 12 -4 15 -10z m-125 -10 c-8 -5 -19 -10 -25 -10 -5 0 -3 5 5 10
8 5 20 10 25 10 6 0 3 -5 -5 -10z m-90 -5 c0 -2 -10 -9 -22 -15 -22 -11 -22
-10 -4 4 21 17 26 19 26 11z m120 -55 c0 -15 -7 -20 -27 -20 -17 0 -23 -3 -16
-8 7 -5 9 -13 3 -22 -7 -12 -11 -12 -26 1 -15 12 -16 12 -10 -8 5 -16 2 -25
-13 -32 -26 -14 -31 -14 -31 4 0 8 -9 15 -20 15 -11 0 -20 -5 -20 -11 0 -5 -4
-8 -9 -4 -5 3 -12 1 -16 -5 -8 -13 -25 -13 -25 0 0 6 7 10 15 10 8 0 15 6 15
13 0 17 62 47 96 47 18 0 25 4 21 14 -8 19 1 26 35 26 21 0 28 -5 28 -20z
m-225 0 c3 -5 1 -10 -4 -10 -6 0 -11 5 -11 10 0 6 2 10 4 10 3 0 8 -4 11 -10z
m70 -10 c-3 -5 -11 -10 -16 -10 -6 0 -7 5 -4 10 3 6 11 10 16 10 6 0 7 -4 4
-10z m-49 -22 c-10 -6 -22 -6 -26 -2 -5 5 3 10 18 11 22 1 24 0 8 -9z m-72
-43 c-4 -11 0 -15 16 -15 16 0 20 -4 16 -16 -3 -9 -6 -22 -6 -31 0 -13 -2 -13
-15 1 -8 8 -15 22 -15 30 0 9 -8 16 -17 16 -16 1 -16 2 1 15 25 19 27 19 20 0z
m-50 -30 c-4 -8 -16 -15 -28 -15 -20 0 -20 1 4 14 14 8 26 14 27 15 1 1 0 -6
-3 -14z m-69 -35 c-3 -5 -12 -10 -18 -10 -7 0 -6 4 3 10 19 12 23 12 15 0z
m69 -5 c-10 -8 -16 -15 -11 -16 4 -1 12 -3 17 -4 6 -1 17 -3 25 -4 8 0 15 -8
15 -16 0 -11 -7 -14 -24 -9 -13 3 -29 0 -37 -8 -8 -7 -25 -15 -39 -17 -14 -1
-40 -20 -58 -41 -19 -23 -40 -38 -52 -37 -24 2 -26 29 -5 51 8 8 15 19 15 25
0 6 7 11 17 11 17 0 115 59 121 72 2 5 11 8 20 8 13 0 12 -3 -4 -15z m981 -40
c33 -17 70 -37 83 -44 17 -9 21 -16 13 -25 -8 -10 -5 -16 14 -24 19 -9 25 -9
25 0 0 7 7 3 15 -8 14 -19 14 -19 15 1 1 19 1 19 11 2 6 -9 14 -15 20 -12 5 4
9 -6 9 -20 l0 -26 83 2 c46 2 88 0 94 -4 5 -3 19 1 29 9 10 9 13 12 5 8 -10
-5 -12 -3 -5 7 4 8 8 22 9 32 0 21 52 47 75 38 11 -4 15 -22 15 -63 0 -69 9
-78 150 -152 30 -16 55 -32 55 -36 0 -3 16 -12 35 -19 19 -7 35 -16 35 -21 0
-5 13 -11 30 -15 16 -4 32 -11 35 -16 4 -5 14 -9 24 -9 10 0 26 -9 36 -20 10
-11 22 -17 26 -14 5 3 9 2 9 -3 0 -4 24 -20 53 -35 47 -25 52 -31 51 -60 -1
-25 4 -35 20 -40 33 -10 58 -9 51 2 -3 6 -1 10 4 10 6 0 11 -4 11 -9 0 -6 8
-8 18 -6 10 2 24 0 31 -5 7 -4 29 -4 48 0 30 7 36 6 40 -11 3 -11 16 -22 28
-25 13 -3 26 -13 29 -21 4 -9 13 -13 22 -9 10 4 13 2 8 -6 -5 -8 -2 -9 9 -5
10 4 21 -1 29 -12 11 -16 48 -34 71 -36 4 0 11 -5 15 -12 4 -6 19 -14 34 -18
15 -4 29 -13 32 -20 2 -7 21 -18 40 -25 20 -6 34 -16 31 -20 -3 -5 3 -7 14 -5
11 2 29 -4 39 -13 58 -49 67 -56 72 -54 12 3 50 -11 50 -20 0 -5 4 -7 9 -4 19
12 33 -25 29 -75 -4 -37 -12 -57 -33 -79 -16 -17 -32 -30 -36 -30 -7 0 -231
-110 -434 -213 -99 -51 -101 -51 -200 -52 l-99 -1 -7 -33 c-13 -61 -19 -65
-402 -250 -163 -79 -195 -92 -250 -95 -118 -7 -189 9 -310 71 -60 31 -116 56
-124 56 -7 0 -13 4 -13 9 0 5 -4 6 -10 3 -5 -3 -10 -2 -10 3 0 6 -43 29 -97
52 -164 72 -193 97 -193 165 l0 35 -55 -6 c-73 -9 -164 11 -243 53 -34 18 -69
33 -77 33 -8 0 -15 4 -15 10 0 5 -11 12 -24 16 -25 6 -110 47 -130 62 -6 5
-33 17 -61 28 -27 10 -52 21 -55 25 -3 3 -30 18 -60 33 -67 32 -92 64 -98 126
-5 51 13 80 49 80 10 0 19 5 19 10 0 6 6 10 13 10 7 0 29 11 49 25 20 14 44
25 52 25 9 0 16 5 16 10 0 6 7 10 15 10 8 0 15 4 15 9 0 5 14 12 30 16 17 4
28 11 24 16 -3 5 7 9 21 9 15 0 24 4 20 10 -3 6 3 10 14 10 11 0 22 4 25 9 3
5 31 21 61 36 81 39 107 66 99 102 -5 23 -4 26 7 16 7 -7 23 -13 36 -13 13 0
23 -3 23 -8 0 -7 55 -8 130 -1 19 2 41 0 48 -5 9 -5 12 3 12 28 0 19 -6 36
-12 39 -7 2 5 13 27 23 22 11 42 22 43 27 2 4 9 7 14 7 6 0 45 20 87 44 42 24
87 47 101 51 14 4 32 16 41 26 9 11 22 19 29 19 14 0 74 32 78 43 2 4 12 7 23
7 10 0 19 5 19 10 0 6 9 10 19 10 10 0 33 13 51 30 25 23 30 34 25 52 -11 36
-22 45 -96 79 -38 17 -66 36 -63 40 3 5 -1 9 -9 9 -8 0 -20 6 -26 14 -6 7 -21
11 -34 9 -28 -6 -58 24 -38 37 22 13 84 -1 146 -35z m665 19 c0 -11 -34 -33
-49 -34 -11 0 -10 5 4 20 17 19 45 27 45 14z m-1790 -9 c0 -2 -10 -10 -22 -16
-21 -11 -22 -11 -9 4 13 16 31 23 31 12z m-133 -41 c-3 -3 -12 -4 -19 -1 -8 3
-5 6 6 6 11 1 17 -2 13 -5z m78 -4 c-3 -5 -14 -10 -23 -10 -15 0 -15 2 -2 10
20 13 33 13 25 0z m1745 -19 c0 -10 -11 -26 -25 -35 -24 -16 -25 -16 -14 10 5
15 12 31 15 35 9 16 24 9 24 -10z m-1880 -1 c0 -5 -4 -10 -10 -10 -5 0 -10 5
-10 10 0 6 5 10 10 10 6 0 10 -4 10 -10z m114 -16 c26 6 26 6 24 -49 -1 -33
-7 -56 -15 -59 -7 -3 -13 -1 -13 4 0 6 -9 10 -20 10 -11 0 -23 6 -26 14 -3 8
-12 12 -20 9 -17 -6 -17 -3 -3 34 6 15 10 30 9 32 -4 10 25 19 31 9 4 -6 18
-8 33 -4z m-95 -40 c3 -16 1 -17 -13 -5 -19 16 -21 34 -3 29 6 -3 14 -13 16
-24z m-174 -65 c-21 -11 -40 -17 -43 -14 -7 7 61 44 71 38 5 -3 -7 -14 -28
-24z m110 22 c-3 -5 3 -11 12 -14 17 -4 17 -4 1 -12 -10 -4 -25 -4 -34 -1 -13
5 -14 9 -4 21 13 16 35 21 25 6z m232 -54 c4 -7 0 -8 -11 -4 -10 4 -22 7 -27
7 -5 0 -9 4 -9 9 0 12 38 2 47 -12z m-412 -7 c-3 -5 -12 -10 -18 -10 -7 0 -6
4 3 10 19 12 23 12 15 0z m89 -11 c11 1 16 -2 12 -8 -10 -16 -43 -13 -50 5 -4
10 -2 13 7 7 6 -4 20 -6 31 -4z m-199 -46 c-5 -2 -17 -8 -25 -13 -13 -9 -13
-11 0 -20 23 -15 60 -12 60 5 0 18 5 18 30 5 28 -15 15 -35 -22 -36 -18 -1
-34 -6 -35 -11 -2 -6 -14 -8 -27 -6 -19 4 -23 11 -22 34 1 26 35 64 46 52 3
-3 1 -7 -5 -10z m645 2 c0 -12 -19 -12 -23 0 -4 9 -1 12 9 8 7 -3 14 -7 14 -8z
m-760 -63 c0 -10 -44 -32 -63 -32 -9 0 21 20 61 39 1 0 2 -3 2 -7z m950 -43
c0 -5 -13 -3 -30 6 -16 9 -30 17 -30 20 0 2 14 -1 30 -6 17 -6 30 -15 30 -20z
m-1110 -49 c-8 -5 -19 -10 -25 -10 -5 0 -3 5 5 10 8 5 20 10 25 10 6 0 3 -5
-5 -10z m1100 -10 c0 -5 -7 -7 -15 -4 -8 4 -15 8 -15 10 0 2 7 4 15 4 8 0 15
-4 15 -10z m-1155 -20 c-19 -21 -35 -26 -35 -12 0 5 10 14 23 20 31 15 32 14
12 -8z m1210 -20 c-3 -5 -11 -10 -16 -10 -6 0 -7 5 -4 10 3 6 11 10 16 10 6 0
7 -4 4 -10z m142 4 c-3 -3 -12 -4 -19 -1 -8 3 -5 6 6 6 11 1 17 -2 13 -5z
m-1427 -24 c0 -5 -4 -10 -10 -10 -5 0 -10 5 -10 10 0 6 5 10 10 10 6 0 10 -4
10 -10z m1536 -13 c4 -4 -4 -7 -19 -7 -14 0 -29 5 -32 10 -7 12 39 9 51 -3z
m61 -3 c-3 -3 -12 -4 -19 -1 -8 3 -5 6 6 6 11 1 17 -2 13 -5z m3030 -26 c-3
-8 -6 -5 -6 6 -1 11 2 17 5 13 3 -3 4 -12 1 -19z m-1287 -14 c0 -8 -5 -12 -10
-9 -6 4 -8 11 -5 16 9 14 15 11 15 -7z m-1018 -1295 c2 -7 28 -12 66 -11 60 0
79 -9 46 -22 -27 -10 -174 -7 -174 4 0 30 54 54 62 29z"/>
<path d="M3305 3331 c-31 -8 -323 -152 -405 -200 -25 -14 -58 -33 -74 -41 -39
-20 -54 -45 -40 -67 6 -10 127 -77 270 -150 l259 -134 65 4 c59 4 83 14 250
100 333 171 330 169 330 197 0 28 3 26 -330 197 -156 81 -193 96 -240 99 -30
2 -69 0 -85 -5z"/>
<path d="M2506 2943 c-10 -3 -48 -21 -85 -40 -36 -20 -111 -59 -166 -88 -165
-85 -215 -116 -231 -141 -35 -52 -1 -80 246 -201 236 -116 288 -136 328 -129
27 4 359 164 456 220 42 24 76 60 76 82 0 29 -41 54 -282 172 -262 129 -289
139 -342 125z"/>
<path d="M3919 2822 c-323 -164 -329 -168 -287 -216 18 -20 195 -118 418 -232
81 -41 129 -51 174 -33 77 30 472 231 493 251 37 35 31 72 -19 106 -36 24
-211 118 -403 215 -22 11 -63 22 -90 25 -48 4 -61 -2 -286 -116z"/>
<path d="M3366 2710 c-79 -4 -89 -7 -92 -25 -4 -29 12 -35 97 -35 77 0 99 9
99 41 0 24 -3 25 -104 19z"/>
<path d="M3295 2515 c-22 -7 -87 -38 -145 -67 -58 -30 -155 -81 -217 -112 -61
-32 -117 -64 -124 -72 -17 -21 10 -56 63 -83 24 -11 121 -61 216 -110 211
-108 233 -115 315 -109 66 6 64 5 413 182 61 31 119 65 129 76 17 19 17 21 -1
41 -23 26 -93 66 -233 134 -58 28 -126 62 -151 75 -110 59 -184 71 -265 45z"/>
<path d="M1826 3505 c-3 -8 -1 -15 4 -15 6 0 10 7 10 15 0 8 -2 15 -4 15 -2 0
-6 -7 -10 -15z"/>
<path d="M4373 4773 c-16 -25 -18 -56 -16 -341 l1 -315 34 -33 c28 -28 112
-80 303 -189 196 -112 242 -135 260 -133 20 3 20 8 20 333 0 251 -3 337 -13
361 -17 39 -50 63 -282 201 -275 163 -276 164 -307 116z"/>
<path d="M932 4510 c0 -14 2 -19 5 -12 2 6 2 18 0 25 -3 6 -5 1 -5 -13z"/>
<path d="M1500 4384 c-25 -13 -52 -28 -60 -34 -8 -5 -74 -43 -146 -84 -170
-96 -206 -119 -242 -154 -45 -44 -56 -70 -64 -152 -11 -110 -30 -580 -24 -595
5 -14 55 -17 71 -5 6 4 39 23 75 43 36 19 119 67 185 106 66 39 138 80 161 91
73 37 105 71 114 120 5 25 14 181 20 347 14 370 13 374 -90 317z"/>
<path d="M920 4368 c0 -20 -5 -38 -12 -40 -15 -5 -1 -28 16 -28 10 0 12 12 8
48 -6 58 -12 68 -12 20z"/>
<path d="M5164 4326 c-3 -8 -4 -158 -2 -333 4 -337 9 -372 55 -399 10 -6 38
-22 63 -36 25 -14 106 -60 180 -103 225 -129 289 -160 302 -147 9 9 9 86 0
323 -16 414 -2 385 -272 545 -287 170 -314 182 -326 150z"/>
<path d="M3313 4300 c-43 -6 -153 -58 -153 -72 0 -4 -6 -8 -14 -8 -14 0 -130
-58 -175 -88 -42 -28 -62 -39 -136 -78 -38 -20 -83 -49 -98 -64 l-29 -27 21
-19 c11 -11 46 -32 78 -49 59 -31 161 -86 268 -145 194 -107 271 -125 382 -90
21 7 43 16 48 20 6 5 62 35 125 68 63 33 133 70 155 82 22 13 69 39 105 58 62
33 90 56 90 74 0 9 -79 61 -160 106 -30 17 -89 50 -130 73 -41 23 -97 54 -125
68 -27 15 -70 39 -95 53 -60 34 -106 45 -157 38z"/>
<path d="M1633 4205 c0 -22 2 -30 4 -17 2 12 2 30 0 40 -3 9 -5 -1 -4 -23z"/>
<path d="M645 3902 c-268 -153 -334 -196 -349 -226 -22 -45 -51 -361 -51 -556
l0 -105 31 -3 c19 -2 47 6 70 19 22 12 89 50 149 84 298 169 291 164 306 203
11 28 39 412 39 528 0 135 -38 146 -195 56z"/>
<path d="M2190 3953 c0 -6 -10 -9 -22 -7 -21 4 -21 4 -3 -5 20 -9 45 3 32 16
-4 3 -7 2 -7 -4z"/>
<path d="M4287 3929 c7 -7 15 -10 18 -7 3 3 -2 9 -12 12 -14 6 -15 5 -6 -5z"/>
<path d="M5946 3871 c-15 -17 -17 -43 -16 -218 1 -238 13 -408 31 -429 16 -20
79 -63 144 -99 28 -15 108 -61 178 -102 70 -41 143 -81 162 -89 32 -13 36 -13
55 6 12 12 19 24 16 28 -3 5 -10 138 -16 298 -9 236 -14 295 -28 324 -14 28
-48 53 -177 132 -191 116 -287 168 -313 168 -10 0 -27 -9 -36 -19z"/>
<path d="M4540 3779 c0 -5 5 -7 10 -4 6 3 10 8 10 11 0 2 -4 4 -10 4 -5 0 -10
-5 -10 -11z"/>
<path d="M937 3733 c-4 -3 -7 -11 -7 -17 0 -6 5 -5 12 2 6 6 9 14 7 17 -3 3
-9 2 -12 -2z"/>
<path d="M4670 3716 c0 -2 8 -10 18 -17 15 -13 16 -12 3 4 -13 16 -21 21 -21
13z"/>
<path d="M930 3660 c0 -5 5 -10 11 -10 5 0 7 5 4 10 -3 6 -8 10 -11 10 -2 0
-4 -4 -4 -10z"/>
<path d="M4710 3649 c0 -5 5 -7 10 -4 6 3 10 8 10 11 0 2 -4 4 -10 4 -5 0 -10
-5 -10 -11z"/>
<path d="M4887 3506 c-4 -10 0 -14 14 -13 10 1 19 7 19 14 0 18 -27 16 -33 -1z"/>
<path d="M5730 2933 c-70 -25 -401 -184 -418 -200 -7 -7 -19 -13 -25 -13 -7 0
-29 -11 -50 -25 -32 -22 -37 -31 -37 -64 0 -26 7 -44 23 -58 27 -25 319 -193
335 -193 7 0 12 -4 12 -8 0 -12 82 -50 125 -58 20 -3 46 -2 58 4 12 6 43 20
70 31 191 84 291 133 295 143 2 4 12 8 21 8 10 0 30 9 44 20 14 11 30 20 36
20 25 0 90 41 96 60 8 27 -14 61 -51 80 -16 8 -41 22 -55 31 -14 10 -52 32
-85 50 -166 89 -204 110 -264 143 -62 34 -96 41 -130 29z"/>
</g>
</svg>
